<svg
  width="64"
  height="64"
  viewBox="0 0 64 64"
  xmlns="http://www.w3.org/2000/svg"
>
  <!-- Yellow alien saucer -->
  <g fill="none" stroke-linejoin="round" stroke-linecap="round">
    <!-- Glow under saucer -->
    <ellipse
      cx="32"
      cy="44"
      rx="18"
      ry="4"
      fill="#fff06a"
      fill-opacity="0.25"
      stroke="none"
    />

    <!-- Main saucer body -->
    <ellipse
      cx="32"
      cy="32"
      rx="22"
      ry="10"
      fill="#332b00"
      fill-opacity="0.9"
      stroke="#ffd94d"
      stroke-width="2"
    />

    <!-- Top dome -->
    <path
      d="M 22 30
         Q 32 18 42 30
         Z"
      fill="#665500"
      stroke="#ffe680"
      stroke-width="1.5"
    />

    <!-- Cockpit highlight -->
    <path
      d="M 27 29
         Q 32 22 37 29
         Z"
      fill="#fff2a3"
      fill-opacity="0.4"
      stroke="none"
    />

    <!-- Rim lights -->
    <circle cx="20" cy="33" r="1.6" fill="#fff4b0" />
    <circle cx="24" cy="35" r="1.6" fill="#ffeb73" />
    <circle cx="28" cy="36" r="1.6" fill="#fff4b0" />
    <circle cx="32" cy="36.5" r="1.6" fill="#ffeb73" />
    <circle cx="36" cy="36" r="1.6" fill="#fff4b0" />
    <circle cx="40" cy="35" r="1.6" fill="#ffeb73" />
    <circle cx="44" cy="33" r="1.6" fill="#fff4b0" />

    <!-- Small fins -->
    <path
      d="M 12 32
         Q 16 36 20 36
         Q 16 34 12 32
         Z"
      fill="#332b00"
      stroke="#ffd94d"
      stroke-width="1"
    />
    <path
      d="M 52 32
         Q 48 36 44 36
         Q 48 34 52 32
         Z"
      fill="#332b00"
      stroke="#ffd94d"
      stroke-width="1"
    />
  </g>
</svg>
